<svg width="22.000000" height="22.000000" viewBox="0 0 22 22" fill="none" xmlns="http://www.w3.org/2000/svg" xmlns:xlink="http://www.w3.org/1999/xlink">
	<desc>
			Created with Pixso.
	</desc>
	<defs>
		<clipPath id="clip1574_142">
			<rect id="Frame" width="22.000000" height="22.000000" fill="white" fill-opacity="0"/>
		</clipPath>
	</defs>
	<rect id="Frame" width="22.000000" height="22.000000" fill="#FFFFFF" fill-opacity="0"/>
	<g clip-path="url(#clip1574_142)">
		<path id="Vector" d="M11 0C8.08 0 5.28 1.15 3.22 3.22C1.15 5.28 0 8.08 0 11C0 13.91 1.16 16.71 3.22 18.77C5.28 20.84 8.08 22 11 22C13.91 22 16.71 20.84 18.77 18.77C20.83 16.71 22 13.91 22 11C22 8.08 20.83 5.28 18.77 3.22C16.71 1.15 13.91 0 11 0Z" fill="#F26D36" fill-opacity="1.000000" fill-rule="nonzero"/>
		<path id="Vector" d="M11 0C8.08 0 5.28 1.15 3.22 3.22C1.15 5.28 0 8.08 0 11C0 13.91 1.16 16.71 3.22 18.77C5.28 20.84 8.08 22 11 22C13.91 22 16.71 20.84 18.77 18.77C20.83 16.71 22 13.91 22 11C22 8.08 20.83 5.28 18.77 3.22C16.71 1.15 13.91 0 11 0ZM1.73 7.16Q2.46 5.39 3.92 3.92L3.92 3.92Q5.38 2.46 7.15 1.73Q8.92 1 11 1Q13.07 1 14.84 1.73Q16.6 2.46 18.07 3.92Q19.53 5.39 20.26 7.16Q21 8.93 21 11Q21 13.06 20.26 14.83Q19.53 16.6 18.07 18.07Q16.61 19.53 14.84 20.26Q13.07 21 11 21Q8.92 21 7.15 20.26Q5.39 19.53 3.92 18.07Q2.46 16.6 1.73 14.83Q1 13.06 1 11Q1 8.92 1.73 7.16Z" fill="#F26D36" fill-opacity="1.000000" fill-rule="evenodd"/>
		<path id="Vector" d="M4.97 10.88C8.18 9.48 10.32 8.56 11.39 8.12C14.44 6.85 15.08 6.62 15.49 6.62C15.58 6.62 15.79 6.64 15.92 6.75C16.03 6.84 16.06 6.96 16.08 7.04C16.09 7.13 16.11 7.32 16.09 7.48C15.93 9.22 15.21 13.44 14.85 15.38C14.69 16.21 14.39 16.49 14.1 16.51C13.46 16.57 12.97 16.09 12.35 15.68C11.39 15.05 10.84 14.66 9.9 14.04C8.81 13.32 9.52 12.93 10.14 12.28C10.3 12.12 13.11 9.56 13.17 9.32C13.17 9.29 13.18 9.19 13.11 9.13C13.05 9.07 12.96 9.09 12.89 9.11C12.79 9.13 11.24 10.15 8.25 12.17C7.81 12.47 7.41 12.62 7.05 12.61C6.66 12.61 5.91 12.39 5.34 12.21C4.66 11.99 4.11 11.87 4.16 11.49C4.18 11.29 4.45 11.09 4.97 10.88Z" fill="#020306" fill-opacity="1.000000" fill-rule="nonzero"/>
	</g>
</svg>
