<svg width="22" height="22" viewBox="0 0 22 22" fill="none" xmlns="http://www.w3.org/2000/svg">
<path fill-rule="evenodd" clip-rule="evenodd" d="M5.32711 1.23633C4.24211 1.23633 3.20154 1.66723 2.43418 2.43429C1.66683 3.20135 1.23552 4.24176 1.23511 5.32676V16.2388C1.23511 17.324 1.66623 18.3648 2.43363 19.1322C3.20103 19.8996 4.24184 20.3308 5.32711 20.3308H16.2391C17.3241 20.3303 18.3645 19.899 19.1316 19.1317C19.8986 18.3643 20.3295 17.3237 20.3295 16.2388V5.32676C20.3291 4.24204 19.898 3.20186 19.131 2.43485C18.364 1.66783 17.3238 1.23674 16.2391 1.23633H5.32711ZM17.4161 5.33304C17.4161 5.64562 17.2919 5.94539 17.0709 6.16642C16.8499 6.38744 16.5501 6.51161 16.2375 6.51161C15.925 6.51161 15.6252 6.38744 15.4042 6.16642C15.1831 5.94539 15.059 5.64562 15.059 5.33304C15.059 5.02047 15.1831 4.72069 15.4042 4.49967C15.6252 4.27864 15.925 4.15447 16.2375 4.15447C16.5501 4.15447 16.8499 4.27864 17.0709 4.49967C17.2919 4.72069 17.4161 5.02047 17.4161 5.33304ZM10.7847 7.51419C9.9178 7.51419 9.08643 7.85855 8.47345 8.47153C7.86047 9.0845 7.51611 9.91588 7.51611 10.7828C7.51611 11.6496 7.86047 12.481 8.47345 13.094C9.08643 13.707 9.9178 14.0513 10.7847 14.0513C11.6516 14.0513 12.4829 13.707 13.0959 13.094C13.7089 12.481 14.0533 11.6496 14.0533 10.7828C14.0533 9.91588 13.7089 9.0845 13.0959 8.47153C12.4829 7.85855 11.6516 7.51419 10.7847 7.51419ZM5.94311 10.7828C5.94311 9.49911 6.45303 8.26804 7.36071 7.36036C8.26839 6.45268 9.49946 5.94276 10.7831 5.94276C12.0668 5.94276 13.2978 6.45268 14.2055 7.36036C15.1132 8.26804 15.6231 9.49911 15.6231 10.7828C15.6231 12.0664 15.1132 13.2975 14.2055 14.2052C13.2978 15.1128 12.0668 15.6228 10.7831 15.6228C9.49946 15.6228 8.26839 15.1128 7.36071 14.2052C6.45303 13.2975 5.94311 12.0664 5.94311 10.7828Z" fill="#F26D36"/>
</svg>
