<svg width="14" height="15" viewBox="0 0 14 15" fill="none" xmlns="http://www.w3.org/2000/svg">
<path d="M8.75 2.25033C9.506 2.25033 10.206 2.4895 10.7782 2.89783L5.45008 8.22541C5.39437 8.27923 5.34993 8.34359 5.31936 8.41476C5.28879 8.48593 5.27269 8.56248 5.27202 8.63993C5.27135 8.71739 5.28611 8.7942 5.31544 8.86589C5.34477 8.93758 5.38808 9.00271 5.44285 9.05748C5.49762 9.11225 5.56275 9.15556 5.63444 9.18489C5.70613 9.21422 5.78295 9.22898 5.8604 9.22831C5.93786 9.22764 6.0144 9.21155 6.08557 9.18097C6.15674 9.1504 6.22111 9.10596 6.27492 9.05025L11.6031 3.72208C12.0249 4.31419 12.2511 5.02334 12.25 5.75033V11.5837C12.25 11.8931 12.1271 12.1898 11.9083 12.4086C11.6895 12.6274 11.3928 12.7503 11.0833 12.7503H2.91667C2.60725 12.7503 2.3105 12.6274 2.09171 12.4086C1.87292 12.1898 1.75 11.8931 1.75 11.5837V3.417C1.75 3.10758 1.87292 2.81083 2.09171 2.59204C2.3105 2.37325 2.60725 2.25033 2.91667 2.25033H8.75ZM12.6333 1.86708C12.7426 1.97647 12.804 2.12482 12.804 2.2795C12.804 2.43418 12.7426 2.58252 12.6333 2.69191L11.6025 3.72208C11.3753 3.40318 11.0966 3.12441 10.7777 2.89725L11.8078 1.86708C11.9172 1.75772 12.0656 1.69629 12.2203 1.69629C12.3749 1.69629 12.5239 1.75772 12.6333 1.86708Z" fill="#6C6A6A"/>
</svg>
