<svg width="23.000000" height="21.000000" viewBox="0 0 23 21" fill="none" xmlns="http://www.w3.org/2000/svg" xmlns:xlink="http://www.w3.org/1999/xlink">
	<desc>
			Created with Pixso.
	</desc>
	<defs/>
	<path id="Vector" d="M3 3L3 0L5 0L5 3L8 3L8 5L5 5L5 8L3 8L3 5L0 5L0 3L3 3ZM6 9L6 6L9 6L9 3L16 3L17.83 5L21 5C22.1 5 23 5.9 23 7L23 19C23 20.09 22.1 21 21 21L5 21C3.89 21 3 20.09 3 19L3 9L6 9ZM13 18C15.75 18 18 15.75 18 13C18 10.24 15.75 8 13 8C10.24 8 8 10.24 8 13C8 15.75 10.24 18 13 18ZM9.79 13C9.79 14.76 11.23 16.2 13 16.2C14.77 16.2 16.2 14.76 16.2 13C16.2 11.23 14.77 9.79 13 9.79C11.23 9.79 9.79 11.23 9.79 13Z" fill="#C7C7C7" fill-opacity="1.000000" fill-rule="nonzero"/>
</svg>
