<svg width="20" height="20" viewBox="0 0 20 20" fill="none" xmlns="http://www.w3.org/2000/svg">
<path d="M10.0009 0.833008C15.0637 0.833008 19.1676 4.93692 19.1676 9.99967C19.1676 15.0624 15.0637 19.1663 10.0009 19.1663C8.38096 19.169 6.78951 18.7402 5.39007 17.9243L0.837908 19.1663L2.07724 14.6123C1.26058 13.2125 0.831535 11.6203 0.834241 9.99967C0.834241 4.93692 4.93816 0.833008 10.0009 0.833008ZM6.87691 5.69134L6.69357 5.69867C6.57489 5.7059 6.45889 5.73708 6.35257 5.79034C6.25314 5.84665 6.16236 5.91705 6.08308 5.99934C5.97307 6.10292 5.91074 6.19276 5.84382 6.27984C5.50477 6.72067 5.32222 7.26188 5.32499 7.81801C5.32682 8.26717 5.44416 8.70442 5.62749 9.11326C6.00241 9.94009 6.61932 10.8155 7.43332 11.6268C7.62949 11.822 7.82199 12.0182 8.02916 12.2006C9.0406 13.0911 10.2459 13.7333 11.5492 14.0761L12.0698 14.1558C12.2394 14.165 12.409 14.1522 12.5795 14.1439C12.8465 14.1301 13.1071 14.0579 13.3431 13.9322C13.4631 13.8703 13.5803 13.803 13.6942 13.7305C13.6942 13.7305 13.7336 13.7048 13.8087 13.648C13.9325 13.5563 14.0086 13.4913 14.1112 13.384C14.1873 13.3052 14.2533 13.2126 14.3037 13.1072C14.3752 12.9578 14.4467 12.6727 14.4761 12.4353C14.4981 12.2538 14.4917 12.1548 14.4889 12.0933C14.4852 11.9953 14.4037 11.8935 14.3147 11.8504L13.7812 11.6112C13.7812 11.6112 12.9837 11.2638 12.4961 11.0419C12.445 11.0196 12.3904 11.0069 12.3347 11.0043C12.272 10.9979 12.2087 11.005 12.1489 11.025C12.0891 11.0451 12.0343 11.0778 11.9882 11.1208C11.9837 11.1189 11.9222 11.1712 11.2595 11.9742C11.2215 12.0253 11.1691 12.0639 11.109 12.0851C11.0489 12.1064 10.9839 12.1092 10.9222 12.0933C10.8624 12.0773 10.8039 12.0571 10.7471 12.0328C10.6334 11.9852 10.594 11.9668 10.5161 11.9338C9.98997 11.7043 9.50287 11.3941 9.07232 11.0144C8.95682 10.9136 8.84958 10.8036 8.73957 10.6973C8.37895 10.3519 8.06465 9.96118 7.80457 9.53492L7.75049 9.44784C7.71165 9.38933 7.68024 9.3262 7.65699 9.25992C7.62216 9.12517 7.71291 9.01701 7.71291 9.01701C7.71291 9.01701 7.93566 8.77317 8.03924 8.64117C8.14007 8.51284 8.22532 8.38818 8.28032 8.29926C8.38849 8.12509 8.42241 7.94634 8.36557 7.80792C8.10891 7.18092 7.84307 6.55667 7.56991 5.93701C7.51582 5.81417 7.35541 5.72617 7.20966 5.70876C7.16016 5.70326 7.11066 5.69776 7.06116 5.69409C6.93806 5.68798 6.8147 5.6892 6.69174 5.69776L6.87691 5.69134Z" fill="#F26D36"/>
</svg>
